HIERARCHY
ROOT joint_Root
{
	OFFSET 0.0 0.0 0.0
	CHANNELS 6 Xposition Yposition Zposition Zrotation Xrotation Yrotation 
	JOINT Hips
	{
		OFFSET -0.726466 93.3139 -2.00062
		CHANNELS 6 Xposition Yposition Zposition Zrotation Xrotation Yrotation 
		JOINT Spine
		{
			OFFSET 15.7357 0.0 0.0
			CHANNELS 6 Xposition Yposition Zposition Zrotation Xrotation Yrotation 
			JOINT Chest
			{
				OFFSET 8.98455 -0.406207 0.0
				CHANNELS 6 Xposition Yposition Zposition Zrotation Xrotation Yrotation 
				JOINT Neck
				{
					OFFSET 16.3773 0.0 0.0
					CHANNELS 6 Xposition Yposition Zposition Zrotation Xrotation Yrotation 
					JOINT Head
					{
						OFFSET 6.45672 0.0 0.0
						CHANNELS 6 Xposition Yposition Zposition Zrotation Xrotation Yrotation 
						End Site
						{
							OFFSET 0.0 0.0 0.0
						}
					}
				}
				JOINT Shoulder_L
				{
					OFFSET 12.9942 -0.242716 4.98039
					CHANNELS 6 Xposition Yposition Zposition Zrotation Xrotation Yrotation 
					JOINT UpperArm_L
					{
						OFFSET 5.34809 0.0 0.0
						CHANNELS 6 Xposition Yposition Zposition Zrotation Xrotation Yrotation 
						JOINT LowerArm_L
						{
							OFFSET 24.3286 1.87007e-05 0.0
							CHANNELS 6 Xposition Yposition Zposition Zrotation Xrotation Yrotation 
							JOINT Hand_L
							{
								OFFSET 22.2916 0.0 0.0
								CHANNELS 6 Xposition Yposition Zposition Zrotation Xrotation Yrotation 
								End Site
								{
									OFFSET 0.0 0.0 0.0
								}
							}
						}
					}
				}
				JOINT Shoulder_R
				{
					OFFSET 12.9945 -0.242716 -4.98039
					CHANNELS 6 Xposition Yposition Zposition Zrotation Xrotation Yrotation 
					JOINT UpperArm_R
					{
						OFFSET -5.34813 0.0 0.0
						CHANNELS 6 Xposition Yposition Zposition Zrotation Xrotation Yrotation 
						JOINT LowerArm_R
						{
							OFFSET -24.3289 0.000322201 0.0
							CHANNELS 6 Xposition Yposition Zposition Zrotation Xrotation Yrotation 
							JOINT Hand_R
							{
								OFFSET -22.2915 -0.000108084 0.0
								CHANNELS 6 Xposition Yposition Zposition Zrotation Xrotation Yrotation 
								End Site
								{
									OFFSET 0.0 0.0 0.0
								}
							}
						}
					}
				}
			}
		}
		JOINT UpperLeg_L
		{
			OFFSET -2.19248 -6.46944 0.0
			CHANNELS 6 Xposition Yposition Zposition Zrotation Xrotation Yrotation 
			JOINT LowerLeg_L
			{
				OFFSET 39.0811 0.0 -1.23785e-05
				CHANNELS 6 Xposition Yposition Zposition Zrotation Xrotation Yrotation 
				JOINT Foot_L
				{
					OFFSET 40.9854 0.0 -1.26872e-05
					CHANNELS 6 Xposition Yposition Zposition Zrotation Xrotation Yrotation 
					JOINT Toes_L
					{
						OFFSET 11.7543 0.0 0.0
						CHANNELS 6 Xposition Yposition Zposition Zrotation Xrotation Yrotation 
						End Site
						{
							OFFSET 0.0 0.0 0.0
						}
					}
				}
			}
		}
		JOINT UpperLeg_R
		{
			OFFSET -2.19251 6.46944 0.0
			CHANNELS 6 Xposition Yposition Zposition Zrotation Xrotation Yrotation 
			JOINT LowerLeg_R
			{
				OFFSET -39.0811 -0.00228153 -0.0401928
				CHANNELS 6 Xposition Yposition Zposition Zrotation Xrotation Yrotation 
				JOINT Foot_R
				{
					OFFSET -40.9854 0.0 0.0
					CHANNELS 6 Xposition Yposition Zposition Zrotation Xrotation Yrotation 
					JOINT Toes_R
					{
						OFFSET -11.7543 0.0 0.0
						CHANNELS 6 Xposition Yposition Zposition Zrotation Xrotation Yrotation 
						End Site
						{
							OFFSET 0.0 0.0 0.0
						}
					}
				}
			}
		}
	}
}
MOTION
Frames:	9
Frame Time:	0.0333333
0.000000 0.000000 0.000000 0.000000 0.000000 -0.000000 -0.787965 92.349500 -2.719930 87.906700 -1.228120 5.319070 15.735700 0.000005 -0.000001 85.419600 84.726700 -84.837500 8.984550 -0.406207 -0.000000 2.751730 -0.866917 1.183710 16.377300 -0.000001 -0.000001 3.123380 -3.011360 1.305420 6.456720 -0.000001 -0.000000 2.984480 -3.560100 0.362763 12.994200 -0.242716 4.980390 -90.006200 0.019957 -72.722400 5.348090 -0.000007 -0.000001 -66.877600 43.487400 -15.579300 24.328600 0.000019 0.000005 1.120160 2.660010 -22.845700 22.291600 -0.000001 0.000005 4.328310 5.510410 -6.958550 12.994500 -0.242716 -4.980390 87.968000 6.978570 -73.721400 -5.348130 -0.000001 -0.000004 -63.675500 39.588500 -18.695900 -24.328900 0.000322 -0.000009 2.996230 9.943740 -16.867900 -22.291500 -0.000108 -0.000004 4.864500 5.371970 -2.042440 -2.192480 -6.469440 -0.000000 -175.482000 -5.101160 -2.538710 39.081100 -0.000007 -0.000012 -0.089188 0.206774 23.332100 40.985400 -0.000006 -0.000013 -0.160194 3.304780 -65.718000 11.754300 -0.000000 0.000003 -0.000045 -0.000519 -16.597800 -2.192510 6.469440 -0.000001 179.949000 13.330500 -179.439000 -39.081100 -0.002282 -0.040193 -0.020414 0.066737 19.579100 -40.985400 0.000008 0.000006 3.597350 6.633960 -65.300100 -11.754300 -0.000006 -0.000006 -0.006583 -0.076044 -19.668500
0.000000 0.000000 0.000000 0.000000 0.000000 -0.000000 -0.779217 92.341800 -2.758650 87.923400 -1.262930 5.343300 15.735700 0.000005 -0.000001 85.382000 84.735100 -84.856600 8.984550 -0.406207 -0.000000 2.734150 -0.870084 1.070530 16.377300 -0.000001 -0.000001 3.142830 -2.995990 1.334420 6.456720 -0.000001 -0.000000 2.999120 -3.533960 0.478708 12.994200 -0.242716 4.980390 -89.980600 -0.062235 -72.694100 5.348090 -0.000007 -0.000001 -66.971800 43.263300 -15.530100 24.328600 0.000019 0.000005 1.159440 2.750770 -22.865100 22.291600 -0.000001 0.000005 4.264700 5.510530 -6.963580 12.994500 -0.242716 -4.980390 87.896100 7.150420 -73.556900 -5.348130 -0.000001 -0.000004 -63.495600 36.912300 -19.020200 -24.328900 0.000322 -0.000009 4.045450 12.132100 -18.599000 -22.291500 -0.000108 -0.000004 1.230280 5.333000 -0.853884 -2.192480 -6.469440 -0.000000 -175.498000 -5.185550 -2.567640 39.081100 -0.000007 -0.000012 -0.089064 0.205890 23.392500 40.985400 -0.000006 -0.000013 -0.148128 3.313380 -65.721800 11.754300 -0.000000 0.000003 -0.000042 -0.000482 -16.596300 -2.192510 6.469440 -0.000001 179.895000 13.336100 -179.479000 -39.081100 -0.002282 -0.040193 -0.025904 0.081864 19.647300 -40.985400 0.000008 0.000006 3.423730 6.739790 -65.277900 -11.754300 -0.000006 -0.000006 -0.006637 -0.076519 -19.687800
0.000000 0.000000 0.000000 0.000000 0.000000 -0.000000 -0.763246 92.354200 -2.831880 87.943400 -1.284040 5.416970 15.735700 0.000005 -0.000001 84.638400 84.707700 -84.180600 8.984550 -0.406207 -0.000000 2.776750 -1.008050 0.939210 16.377300 -0.000001 -0.000001 3.126080 -2.958990 1.350500 6.456720 -0.000001 -0.000000 2.992380 -3.395400 0.626472 12.994200 -0.242716 4.980390 -89.934700 -0.209406 -72.667600 5.348090 -0.000007 -0.000001 -67.255900 42.947000 -15.329900 24.328600 0.000019 0.000005 1.100020 2.600900 -22.934400 22.291600 -0.000001 0.000005 4.219070 5.511130 -6.988670 12.994500 -0.242716 -4.980390 87.752700 7.524870 -73.318600 -5.348130 -0.000001 -0.000004 -62.955400 32.500800 -19.543300 -24.328900 0.000322 -0.000009 5.036960 12.137800 -22.754000 -22.291500 -0.000108 -0.000004 -2.489130 5.322650 -0.574497 -2.192480 -6.469440 -0.000000 -175.533000 -5.159940 -2.510650 39.081100 -0.000007 -0.000012 -0.087445 0.202804 23.324900 40.985400 -0.000006 -0.000013 -0.143176 3.278040 -65.638500 11.754300 -0.000000 0.000003 -0.000050 -0.000569 -16.599600 -2.192510 6.469440 -0.000001 179.851000 13.381300 -179.441000 -39.081100 -0.002282 -0.040193 -0.024299 0.077464 19.624200 -40.985400 0.000008 0.000006 3.482910 6.791240 -65.226400 -11.754300 -0.000006 -0.000006 -0.006338 -0.073876 -19.580000
0.000000 0.000000 0.000000 0.000000 0.000000 -0.000000 -0.738633 92.354300 -2.930140 87.911000 -1.517580 5.430000 15.735700 0.000005 -0.000001 83.852000 84.700600 -83.450900 8.984550 -0.406207 -0.000000 2.776480 -1.151520 0.829151 16.377300 -0.000001 -0.000001 3.150540 -2.883830 1.376430 6.456720 -0.000001 -0.000000 2.970100 -3.133540 0.732238 12.994200 -0.242716 4.980390 -89.883500 -0.373995 -72.698300 5.348090 -0.000007 -0.000001 -67.595500 42.683000 -15.014800 24.328600 0.000019 0.000005 1.074420 2.535230 -22.975300 22.291600 -0.000001 0.000005 4.098750 5.508540 -6.880960 12.994500 -0.242716 -4.980390 87.590500 7.914040 -73.006300 -5.348130 -0.000001 -0.000004 -61.373100 28.297500 -20.993400 -24.328900 0.000322 -0.000009 4.671330 8.313750 -29.495500 -22.291500 -0.000108 -0.000004 -1.660380 5.364850 -1.809580 -2.192480 -6.469440 -0.000000 -175.494000 -5.391280 -2.566810 39.081100 -0.000007 -0.000012 -0.087564 0.202455 23.389000 40.985400 -0.000006 -0.000013 -0.128966 3.267430 -65.615900 11.754300 -0.000000 0.000003 -0.000049 -0.000554 -16.599100 -2.192510 6.469440 -0.000001 179.888000 13.219800 -179.541000 -39.081100 -0.002282 -0.040193 -0.025429 0.080470 19.661200 -40.985400 0.000008 0.000006 3.401030 6.901190 -65.139000 -11.754300 -0.000006 -0.000006 -0.006490 -0.075220 -19.634800
0.000000 0.000000 0.000000 0.000000 0.000000 -0.000000 -0.681810 92.366200 -3.038120 87.888200 -1.919490 5.467760 15.735700 0.000005 -0.000001 83.110100 84.690500 -82.768500 8.984550 -0.406207 -0.000000 2.780900 -1.287570 0.713848 16.377300 -0.000001 -0.000001 3.135800 -2.754090 1.374500 6.456720 -0.000001 -0.000000 3.084070 -2.829080 0.775750 12.994200 -0.242716 4.980390 -89.848100 -0.487690 -72.702600 5.348090 -0.000007 -0.000001 -67.579800 42.966300 -14.889400 24.328600 0.000019 0.000005 1.060290 2.505680 -22.943900 22.291600 -0.000001 0.000005 4.047520 5.506570 -6.800160 12.994500 -0.242716 -4.980390 87.514700 8.063300 -72.806000 -5.348130 -0.000001 -0.000004 -59.604700 23.766700 -23.122900 -24.328900 0.000322 -0.000009 5.653440 6.777680 -39.984700 -22.291500 -0.000108 -0.000004 4.134730 5.403110 -3.009320 -2.192480 -6.469440 -0.000000 -175.496000 -5.628640 -2.527620 39.081100 -0.000007 -0.000012 -0.086548 0.200397 23.358800 40.985400 -0.000006 -0.000013 -0.124301 3.094430 -65.561700 11.754300 -0.000000 0.000003 -0.000042 -0.000484 -16.596400 -2.192510 6.469440 -0.000001 179.879000 13.044700 -179.592000 -39.081100 -0.002282 -0.040193 -0.025224 0.079989 19.640400 -40.985400 0.000008 0.000006 3.411210 7.154170 -65.028600 -11.754300 -0.000006 -0.000006 -0.006552 -0.075769 -19.657200
0.000000 0.000000 0.000000 0.000000 0.000000 -0.000000 -0.599136 92.371000 -3.182990 87.789300 -2.523480 5.421420 15.735700 0.000005 -0.000001 82.832500 84.721200 -82.503200 8.984550 -0.406207 -0.000000 2.713670 -1.330620 0.689407 16.377300 -0.000001 -0.000001 3.193610 -2.599440 1.394840 6.456720 -0.000001 -0.000000 3.134770 -2.518740 0.491535 12.994200 -0.242716 4.980390 -89.826800 -0.558732 -72.775900 5.348090 -0.000007 -0.000001 -67.634900 43.197100 -14.688700 24.328600 0.000019 0.000005 1.134760 2.705090 -22.767100 22.291600 -0.000001 0.000005 4.153640 5.510370 -6.956880 12.994500 -0.242716 -4.980390 87.596100 7.687800 -72.577600 -5.348130 -0.000001 -0.000004 -58.302800 18.608400 -26.391100 -24.328900 0.000322 -0.000009 8.697700 6.626620 -52.970600 -22.291500 -0.000108 -0.000004 10.256000 5.430570 -3.938390 -2.192480 -6.469440 -0.000000 -175.449000 -5.922160 -2.642460 39.081100 -0.000007 -0.000012 -0.085639 0.197367 23.456400 40.985400 -0.000006 -0.000013 -0.123362 2.801230 -65.552500 11.754300 -0.000000 0.000003 -0.000048 -0.000541 -16.598600 -2.192510 6.469440 -0.000001 179.973000 12.672300 -179.779000 -39.081100 -0.002282 -0.040193 -0.026555 0.083792 19.624000 -40.985400 0.000008 0.000006 3.294700 7.401850 -64.849600 -11.754300 -0.000006 -0.000006 -0.006493 -0.075253 -19.636200
0.000000 0.000000 0.000000 0.000000 0.000000 -0.000000 -0.483984 92.388300 -3.306550 87.735200 -3.187840 5.370030 15.735700 0.000005 -0.000001 82.636400 84.775500 -82.318500 8.984550 -0.406207 -0.000000 2.601250 -1.352380 0.665825 16.377300 -0.000001 -0.000001 3.257320 -2.448060 1.410160 6.456720 -0.000001 -0.000000 3.221270 -2.156240 0.024785 12.994200 -0.242716 4.980390 -89.842700 -0.508886 -72.824800 5.348090 -0.000007 -0.000001 -67.692500 43.174700 -14.406700 24.328600 0.000019 0.000005 1.190730 2.856320 -22.640800 22.291600 -0.000001 0.000005 4.106720 5.506700 -6.805640 12.994500 -0.242716 -4.980390 87.742900 7.105900 -72.327400 -5.348130 -0.000001 -0.000004 -57.435900 13.011800 -31.397400 -24.328900 0.000322 -0.000009 9.175380 4.207710 -65.588300 -22.291500 -0.000108 -0.000004 14.623900 5.443240 -4.395860 -2.192480 -6.469440 -0.000000 -175.465000 -6.316770 -2.671790 39.081100 -0.000007 -0.000012 -0.082341 0.190070 23.422900 40.985400 -0.000006 -0.000013 -0.106124 2.480340 -65.499800 11.754300 -0.000000 0.000003 -0.000042 -0.000491 -16.596700 -2.192510 6.469440 -0.000001 -179.999000 12.290300 -179.931000 -39.081100 -0.002282 -0.040193 -0.026852 0.084986 19.547100 -40.985400 0.000008 0.000006 3.223690 7.708430 -64.656700 -11.754300 -0.000006 -0.000006 -0.006672 -0.076818 -19.700100
0.000000 0.000000 0.000000 0.000000 0.000000 -0.000000 -0.357053 92.418400 -3.434280 87.664400 -3.834590 5.295410 15.735700 0.000005 -0.000001 82.401800 84.857900 -82.135200 8.984550 -0.406207 -0.000000 2.431750 -1.371150 0.561788 16.377300 -0.000001 -0.000001 3.403350 -2.327270 1.362180 6.456720 -0.000001 -0.000000 3.311460 -1.827750 -0.234776 12.994200 -0.242716 4.980390 -89.870800 -0.417740 -72.812700 5.348090 -0.000007 -0.000001 -67.583900 43.030300 -14.235900 24.328600 0.000019 0.000005 1.188010 2.882150 -22.411900 22.291600 -0.000001 0.000005 4.272370 5.507440 -6.835860 12.994500 -0.242716 -4.980390 87.945300 6.454230 -72.299000 -5.348130 -0.000001 -0.000004 -57.928300 6.546730 -38.163300 -24.328900 0.000322 -0.000009 9.117970 2.317660 -75.856700 -22.291500 -0.000108 -0.000004 16.042100 5.433540 -4.063140 -2.192480 -6.469440 -0.000000 -175.462000 -6.683970 -2.663670 39.081100 -0.000007 -0.000012 -0.081196 0.188542 23.299100 40.985400 -0.000006 -0.000013 -0.086243 2.193980 -65.418800 11.754300 -0.000000 0.000003 -0.000038 -0.000446 -16.594900 -2.192510 6.469440 -0.000001 -179.939000 11.892600 179.935000 -39.081100 -0.002282 -0.040193 -0.022847 0.074450 19.366900 -40.985400 0.000008 0.000006 3.214200 7.985410 -64.414000 -11.754300 -0.000006 -0.000006 -0.006555 -0.075795 -19.658300
0.000000 0.000000 0.000000 0.000000 0.000000 -0.000000 -0.232615 92.433800 -3.566390 87.611100 -4.440290 5.141320 15.735700 0.000005 -0.000001 82.286800 84.948600 -82.098000 8.984550 -0.406207 -0.000000 2.248220 -1.364040 0.404036 16.377300 -0.000001 -0.000001 3.384610 -2.179760 1.299210 6.456720 -0.000001 -0.000000 3.373730 -1.589510 -0.586293 12.994200 -0.242716 4.980390 -89.923200 -0.248906 -72.845100 5.348090 -0.000007 -0.000001 -67.362800 42.613100 -14.206300 24.328600 0.000019 0.000005 1.271170 3.131310 -22.107700 22.291600 -0.000001 0.000005 4.292680 5.507760 -6.848920 12.994500 -0.242716 -4.980390 88.214700 5.717480 -72.626500 -5.348130 -0.000001 -0.000004 -59.403200 -0.009707 -46.434900 -24.328900 0.000322 -0.000009 11.103300 1.388150 -82.958400 -22.291500 -0.000108 -0.000004 17.742300 5.411010 -3.304680 -2.192480 -6.469440 -0.000000 -175.486000 -7.113720 -2.835850 39.081100 -0.000007 -0.000012 -0.078877 0.183226 23.291500 40.985400 -0.000006 -0.000013 -0.039266 1.996620 -65.356700 11.754300 -0.000000 0.000003 -0.000038 -0.000445 -16.594900 -2.192510 6.469440 -0.000001 -179.888000 11.524700 179.659000 -39.081100 -0.002282 -0.040193 -0.021245 0.070048 19.326800 -40.985400 0.000008 0.000006 3.244860 8.234980 -64.254100 -11.754300 -0.000006 -0.000006 -0.006932 -0.079076 -19.792200
